# xmcd
#
# Track frame offsets:
#	150
#	16127
#	31799
#	47236
#	62959
#	75842
#	89629
#	102225
#	114861
#	127853
#	146080
#	163432
#	183229
#	200972
#	217377
#
# Disc length: 3131 seconds
#
# Revision: 2
# Processed by: cddbd v1.5.2PL0 Copyright (c) Steve Scherf et al.
# Submitted via: audiograbber 1.83.01
#
DISCID=d60c390f
DTITLE=Compilation - Cb60128
DYEAR=1900
DGENRE=Karaoke
TTITLE0=Milsap, Ronnie - Houston Solution
TTITLE1=Royal, Billy Joe - Tell It Like It Is
TTITLE2=Thornton, Marsha - Bottle Of Wine And Patsy Cline
TTITLE3=William, Don - Back In My Younger Days
TTITLE4=Williams, Hank, Sr and Hank Williams, Jr - There's A Tear In My Beer
TTITLE5=Murray, Anne - Feed This Fire
TTITLE6=Sheppard, T.G. - You Still Do
TTITLE7=Greenwood, Lee - Holdin' A Good Hand
TTITLE8=Parton, Dolly - To Daddy
TTITLE9=Seals, Dan - Love On Arrival
TTITLE10=Conway, Twitty - Crazy In Love
TTITLE11=McClain, Charley - Dancin' Your Memory Away
TTITLE12=Haggard, Merle - We Never Touch At All
TTITLE13=Stuart, Marty - This One's Gonna Hurt You
TTITLE14=Oak Ridge Boys - You're My Soul And Inspiration
EXTD=
EXTT0=
EXTT1=
EXTT2=
EXTT3=
EXTT4=
EXTT5=
EXTT6=
EXTT7=
EXTT8=
EXTT9=
EXTT10=
EXTT11=
EXTT12=
EXTT13=
EXTT14=
PLAYORDER=
